# xmcd
#
# Track frame offsets: 
#        150
#        13337
#        23455
#        35038
#        45350
#        56723
#        69979
#        84321
#        98687
#        110981
#
# Disc length: 1621 seconds
#
# Revision: 0
# Processed by: cddbd v1.5.1PL0 Copyright (c) Steve Scherf et al.
# Submitted via: ExactAudioCopy v0.95a5
#
DISCID=7a06530a
DTITLE=Jimmy Dean And The Country Gentlemen - Platinum Series
DYEAR=1900
DGENRE=Country
TTITLE0=Bumming Around
TTITLE1=Rawhide Trail
TTITLE2=Caribou Mash
TTITLE3=Five Strings Ten Fingers
TTITLE4=Pickin' N' Grinnin'
TTITLE5=Paper Love Affair
TTITLE6=Blues Won't Let Me Sleep
TTITLE7=You Won't Make Me Cry
TTITLE8=Below My Window Pane
TTITLE9=Aw Shucks
EXTD=
EXTT0=
EXTT1=
EXTT2=
EXTT3=
EXTT4=
EXTT5=
EXTT6=
EXTT7=
EXTT8=
EXTT9=
PLAYORDER=
